# AST/ASF file generated using VICON BodyLanguage
# -----------------------------------------------
:version 1.10
:name VICON
:units
  mass 1.0
  length 0.45
  angle deg
:documentation
   .ast/.asf automatically generated from VICON data using
   VICON BodyBuilder and BodyLanguage model FoxedUp or BRILLIANT.MOD
:root
   order TX TY TZ RX RY RZ
   axis XYZ
   position 0 0 0  
   orientation 0 0 0 
:bonedata
  begin
     id 1 
     name lhipjoint
     direction 0.653368 -0.678499 0.335782 
     length 2.51848 
     axis 0 0 0  XYZ
  end
  begin
     id 2 
     name lfemur
     direction 0.34202 -0.939693 0  
     length 6.57749  
     axis 0 0 20  XYZ
    dof rx ry rz
    limits (-160.0 20.0)
           (-70.0 70.0)
           (-60.0 70.0)
  end
  begin
     id 3 
     name ltibia
     direction 0.34202 -0.939693 0   
     length 7.94618   
     axis 0 0 20   XYZ
    dof rx
    limits (-10.0 170.0)
  end
  begin
     id 4 
     name lfoot
     direction 0.0811271 -0.222895 0.971461   
     length 2.31339   
     axis -90 7.62852e-016 20   XYZ
    dof rx rz
    limits (-45.0 90.0)
           (-70.0 20.0)
  end
  begin
     id 5 
     name ltoes
     direction 1.53568e-011 -4.21885e-011 1   
     length 1.15935   
     axis -90 7.62852e-016 20   XYZ
    dof rx
    limits (-90.0 20.0)
  end
  begin
     id 6 
     name rhipjoint
     direction -0.640058 -0.688614 0.340788   
     length 2.48149  
     axis 0 0 0  XYZ 
  end
  begin
     id 7 
     name rfemur
     direction -0.34202 -0.939693 0   
     length 6.57875   
     axis 0 0 -20   XYZ
    dof rx ry rz
    limits (-160.0 20.0)
           (-70.0 70.0)
           (-70.0 60.0)
  end
  begin
     id 8 
     name rtibia
     direction -0.34202 -0.939693 0   
     length 7.977   
     axis 0 0 -20   XYZ
    dof rx
    limits (-10.0 170.0)
 end
 begin
     id 9 
     name rfoot
     direction -0.0979793 -0.269196 0.958089   
     length 2.19857  
     axis -90 -7.62852e-016 -20   XYZ
    dof rx rz
    limits (-45.0 90.0)
           (-20.0 70.0)
  end
  begin
     id 10 
     name rtoes
     direction -1.53556e-011 -4.21868e-011 1   
     length 1.09838   
     axis -90 -7.62852e-016 -20   XYZ
    dof rx
    limits (-90.0 20.0)
  end
  begin
     id 11 
     name lowerback
     direction 0.0149039 0.998517 -0.0523597   
     length 2.10809   
     axis 0 0 0   XYZ
    dof rx ry rz
    limits (-20.0 45.0)
           (-30.0 30.0)
           (-30.0 30.0)
  end
  begin
     id 12 
     name upperback
     direction -0.00882659 0.999418 -0.0329624   
     length 2.1102   
     axis 0 0 0   XYZ
    dof rx ry rz
    limits (-20.0 45.0)
           (-30.0 30.0)
           (-30.0 30.0)
  end
  begin
     id 13 
     name thorax
     direction -0.0165585 0.999826 -0.0085833   
     length 2.11039   
     axis 0 0 0   XYZ
    dof rx ry rz
    limits (-20.0 45.0)
           (-30.0 30.0)
           (-30.0 30.0)
  end
  begin
     id 14 
     name lowerneck
     direction -0.0130877 0.999911 0.00260353   
     length 1.73253   
     axis 0 0 0   XYZ
    dof rx ry rz
    limits (-20.0 45.0)
           (-30.0 30.0)
           (-30.0 30.0)
  end
  begin
     id 15 
     name upperneck
     direction -0.0348454 0.928205 -0.370435   
     length 1.66692   
     axis 0 0 0   XYZ
    dof rx ry rz
    limits (-20.0 45.0)
           (-30.0 30.0)
           (-30.0 30.0)
  end
  begin
     id 16
     name head
     direction -0.00807754 0.992494 -0.122026  
     length 1.72765  
     axis 0 0 0   XYZ
    dof rx ry rz
    limits (-20.0 45.0)
           (-30.0 30.0)
           (-30.0 30.0)
  end
  begin
     id 17 
     name lclavicle
     direction 0.987582 0.144023 0.0627671  
     length 3.49235  
     axis 0 0 0   XYZ
    dof ry rz
    limits (-20.0 10.0)
           (0.0 20.0)
  end
  begin
     id 18 
     name lhumerus
     direction 1 -4.48958e-011 -1.45183e-018   
     length 5.41917   
     axis 180 -30 -90   XYZ
    dof rx ry rz
    limits (-60.0 90.0)
           (-90.0 90.0)
           (-90.0 90.0)
  end
  begin
     id 19
     name lradius
     direction 1 -4.48999e-011 5.75106e-027   
     length 2.44373   
     axis 180 -30 -90   XYZ
    dof rx
    limits (-10.0 170.0)
  end
  begin
     id 20
     name lwrist
     direction 1 -4.48987e-011 1.53461e-026   
     length 1.22186   
     axis -1.09697e-014 90 90   XYZ
    dof ry
    limits (-180.0 0.0)
 end
  begin
     id 21 
     name lhand
     direction 1 -4.48881e-011 3.06923e-026   
     length 0.727502   
     axis -1.95843e-014 90 90   XYZ
    dof rx rz
    limits (-90.0 90.0)
           (-45.0 45.0)
  end
  begin
     id 22 
     name lfingers
     direction 1 -4.48907e-011 6.13845e-026   
     length 0.586531   
     axis -3.91686e-014 90 90   XYZ
    dof rx
    limits (0.0 90.0)
  end
  begin
     id 23
     name lthumb
     direction 0.707107 -6.3487e-011 0.707107   
     length 0.842145   
     axis -90 45 2.85299e-015   XYZ
    dof rx rz
    limits (-45.0 45.0)
           (-45.0 45.0)
  end
  begin
     id 24 
     name rclavicle
     direction -0.980998 0.169556 0.0943023   
     length 3.29272  
     axis 0 0 0   XYZ 
    dof ry rz
    limits (-10.0 20.0)
           (-20.0 0.0)
  end
  begin
     id 25 
     name rhumerus
     direction -1 -1.83355e-005 2.45537e-005  
     length 5.58976   
     axis 180 30 90   XYZ
    dof rx ry rz
    limits (-90.0 60.0)
           (-90.0 90.0)
           (-90.0 90.0)
  end
  begin
     id 26 
     name rradius
     direction -1 -4.48967e-011 5.97228e-027   
     length 2.4806   
     axis 180 30 90   XYZ
    dof rx
    limits (-10.0 170.0)
  end
  begin
     id 27 
     name rwrist
     direction -1 -4.48963e-011 1.53461e-026   
     length 1.2403   
     axis -1.09697e-014 -90 -90   XYZ
    dof ry
    limits (-180.0 0.0)
  end
  begin
     id 28
     name rhand
     direction -1 -4.48881e-011 3.06923e-026   
     length 0.816009   
     axis -1.95843e-014 -90 -90   XYZ
    dof rx rz
    limits (-90.0 90.0)
           (-45.0 45.0)
  end
  begin
     id 29
     name rfingers
     direction -1 -4.49018e-011 6.13845e-026   
     length 0.657887   
     axis -3.91686e-014 -90 -90   XYZ
    dof rx
    limits (0.0 90.0)
  end
  begin
     id 30
     name rthumb
     direction -0.707107 -6.34872e-011 0.707107   
     length 0.944599   
     axis -90 -45 -2.85299e-015   XYZ
    dof rx rz
    limits (-45.0 45.0)
           (-45.0 45.0)
  end
:hierarchy
  begin
    root lhipjoint rhipjoint lowerback
    lhipjoint lfemur
    lfemur ltibia
    ltibia lfoot
    lfoot ltoes
    rhipjoint rfemur
    rfemur rtibia
    rtibia rfoot
    rfoot rtoes
    lowerback upperback
    upperback thorax
    thorax lowerneck lclavicle rclavicle
    lowerneck upperneck
    upperneck head
    lclavicle lhumerus
    lhumerus lradius
    lradius lwrist
    lwrist lhand lthumb
    lhand lfingers
    rclavicle rhumerus
    rhumerus rradius
    rradius rwrist
    rwrist rhand rthumb
    rhand rfingers
  end

#!OML:ASF F:\VICON\USERDATA\INSTALL\rory3\rory3.ASF
:FULLY-SPECIFIED
:DEGREES
1
root 2.4417 16.1603 15.5875 19.8173 -15.2011 0.802894
lowerback -3.06823 -1.45417 -1.018
upperback -8.69768 -2.13344 -1.71454
thorax -7.39208 -1.08886 -1.15084
lowerneck -11.6214 0.201341 -0.457073
upperneck 37.6742 -2.44723 6.61176
head 15.2118 -0.341663 2.45669
rclavicle 6.9059e-014 2.14687e-014
rhumerus -77.0454 -60.7767 25.6997
rradius 10.4109
rwrist 66.7725
rhand 3.54465 14.4129
rfingers 7.12502
rthumb 28.9809 -13.3542
lclavicle 6.9059e-014 2.14687e-014
lhumerus 11.7659 44.7267 81.4409
lradius 30.8575
lwrist 32.0787
lhand 17.4911 22.743
lfingers 7.12502
lthumb 42.1911 47.2687
rfemur -68.2557 8.93785 20.0671
rtibia 43.669
rfoot 17.3081 -20.6841
rtoes 7.70088
lfemur -21.906 -18.8516 -26.2964
ltibia 39.4693
lfoot -28.4161 8.80612
ltoes -17.0706
2
root 2.47187 16.2164 15.4742 19.9075 -15.7986 0.722433
lowerback -2.9719 -1.56736 -1.04973
upperback -8.77785 -2.29047 -1.64882
thorax -7.53374 -1.16326 -1.05503
lowerneck -11.7571 -0.226885 -0.590157
upperneck 38.0284 -3.07718 6.49541
head 15.4573 -0.648646 2.34311
rclavicle 3.57564e-014 -9.54166e-015
rhumerus -79.6971 -61.2335 28.1462
rradius 10.3022
rwrist 67.7562
rhand 2.72276 14.36
rfingers 7.12502
rthumb 28.1956 -13.5393
lclavicle 3.57564e-014 -9.54166e-015
lhumerus 9.92623 46.3195 80.6994
lradius 30.2251
lwrist 31.3284
lhand 17.3749 28.5637
lfingers 7.12502
lthumb 42.0822 53.1262
rfemur -68.4475 9.29331 19.3611
rtibia 43.2403
rfoot 16.3642 -21.543
rtoes 11.0942
lfemur -21.8154 -18.5953 -26.2132
ltibia 38.3101
lfoot -28.0578 9.79531
ltoes -19.3731
3
root 2.50393 16.2524 15.3405 19.998 -16.401 0.758289
lowerback -2.79388 -1.73676 -1.23649
upperback -8.76871 -2.52521 -1.58978
thorax -7.6195 -1.26511 -0.874763
lowerneck -11.9453 -0.763199 -1.13269
upperneck 38.1753 -3.86225 6.69361
head 15.6399 -1.03892 2.40364
rclavicle -2.11209e-016 -3.18055e-015
rhumerus -74.464 -60.8377 21.323
rradius 10.1905
rwrist 63.4905
rhand 1.33433 12.5894
rfingers 7.12502
rthumb 26.8678 -15.5214
lclavicle -2.11209e-016 -3.18055e-015
lhumerus 9.08349 48.6209 80.5283
lradius 29.0244
lwrist 29.6138
lhand 17.1646 23.1357
lfingers 7.12502
lthumb 41.8851 47.7641
rfemur -68.75 9.39379 18.8281
rtibia 42.952
rfoot 14.5636 -22.7852
rtoes 16.6489
lfemur -22.0784 -17.95 -26.2044
ltibia 37.492
lfoot -27.7881 9.91756
ltoes -20.017
4
root 2.535 16.2926 15.2063 20.0686 -16.9311 0.789538
lowerback -2.65752 -1.94705 -1.40658
upperback -8.67886 -2.81214 -1.54828
thorax -7.59309 -1.39494 -0.7219
lowerneck -11.804 -1.2736 -2.11073
upperneck 37.9461 -4.69584 7.53335
head 15.6002 -1.43801 2.79815
rclavicle -2.21645e-014 -9.54166e-015
rhumerus -87.5663 -62.9336 35.3809
rradius 10.0911
rwrist 70.5147
rhand 0.757573 13.4587
rfingers 7.12502
rthumb 26.3158 -14.7358
lclavicle -2.21645e-014 -9.54166e-015
lhumerus 8.31698 50.47 80.2914
lradius 28.0817
lwrist 28.6275
lhand 14.4827 20.1945
lfingers 7.12502
lthumb 39.3645 45.6091
rfemur -68.9441 9.12852 18.7553
rtibia 42.7309
rfoot 13.4771 -22.918
rtoes 18.4934
lfemur -22.2909 -17.6188 -26.1783
ltibia 36.6286
lfoot -27.7272 9.90989
ltoes -19.7421
5
root 2.56077 16.3369 15.0845 20.1298 -17.3828 0.852406
lowerback -2.67356 -2.15865 -1.62362
upperback -8.53545 -3.09627 -1.52965
thorax -7.41709 -1.52238 -0.574004
lowerneck -12.2064 -1.81444 -2.61246
upperneck 38.0527 -5.58571 7.95457
head 15.861 -1.83082 2.9284
rclavicle -3.27001e-014 -2.38542e-014
rhumerus -98.0984 -63.4751 46.187
rradius 10.0327
rwrist 75.1058
rhand -0.13018 13.9287
rfingers 7.12502
rthumb 25.4657 -14.3899
lclavicle -3.27001e-014 -2.38542e-014
lhumerus 7.74157 52.1003 80.2211
lradius 27.3425
lwrist 28.0217
lhand 14.4549 19.0351
lfingers 7.12502
lthumb 39.3383 44.4574
rfemur -69.0199 8.6933 18.8844
rtibia 42.6038
rfoot 15.2104 -22.5945
rtoes 14.6919
lfemur -22.4345 -17.6419 -26.189
ltibia 35.922
lfoot -27.6721 10.8029
ltoes -21.4095
